<svg xmlns="http://www.w3.org/2000/svg" viewBox="0 0 240 460" fill="none">
  <!-- Kiss Cam groom — premium semi-realistic reference (live art in kiss-cam-characters.tsx) -->
  <defs>
    <linearGradient id="g-skin" x1="0" y1="0" x2="1" y2="1">
      <stop offset="0%" stop-color="#f7d4bc"/><stop offset="100%" stop-color="#e8b396"/>
    </linearGradient>
    <linearGradient id="g-tux" x1="0" y1="0" x2="0" y2="1">
      <stop offset="0%" stop-color="#222226"/><stop offset="100%" stop-color="#0c0c0e"/>
    </linearGradient>
  </defs>
  <ellipse cx="120" cy="444" rx="46" ry="8" fill="rgba(70,60,50,.14)"/>
  <path d="M94 275 C92 330 88 380 90 412 L114 412 C116 380 116 330 118 275Z" fill="url(#g-tux)" stroke="#5a4a42" stroke-width="1.6"/>
  <path d="M122 275 C124 330 126 380 126 412 L150 412 C152 380 148 330 146 275Z" fill="#0c0c0e" stroke="#5a4a42" stroke-width="1.6"/>
  <path d="M88 412 L86 424 C90 426 110 426 114 424 L114 412Z" fill="#0c0c0e" stroke="#5a4a42" stroke-width="1.3"/>
  <path d="M126 412 L126 424 C130 426 150 426 154 424 L152 412Z" fill="#0c0c0e" stroke="#5a4a42" stroke-width="1.3"/>
  <path d="M78 132 C78 112 96 100 120 100 C144 100 162 112 162 132 L170 275 L70 275Z" fill="url(#g-tux)" stroke="#5a4a42" stroke-width="1.7"/>
  <path d="M112 112 L120 210 L128 112Z" fill="#fffcf8" stroke="#5a4a42" stroke-width="1.2"/>
  <path d="M108 106 L120 120 L132 106 L127 102 L120 110 L113 102Z" fill="#fffcf8" stroke="#5a4a42" stroke-width="1.15"/>
  <path d="M116 118 L120 126 L124 118 L122 114 L120 116 L118 114Z" fill="#101012"/>
  <path d="M117.5 126 L120 208 L122.5 126Z" fill="#101012"/>
  <path d="M110 110 L86 152 L104 160 L118 124Z" fill="#0c0c0e" stroke="#5a4a42" stroke-width="1.3"/>
  <path d="M130 110 L154 152 L136 160 L122 124Z" fill="#0c0c0e" stroke="#5a4a42" stroke-width="1.3"/>
  <circle cx="108" cy="168" r="2.8" fill="#0c0c0e" stroke="#5a4a42"/><circle cx="132" cy="168" r="2.8" fill="#0c0c0e" stroke="#5a4a42"/>
  <circle cx="108" cy="198" r="2.8" fill="#0c0c0e" stroke="#5a4a42"/><circle cx="132" cy="198" r="2.8" fill="#0c0c0e" stroke="#5a4a42"/>
  <path d="M78 138 Q52 190 62 250" fill="none" stroke="#161618" stroke-width="15"/>
  <ellipse cx="62" cy="258" rx="9.5" ry="10.5" fill="url(#g-skin)" stroke="#5a4a42" stroke-width="1.5"/>
  <path d="M162 138 Q198 185 188 248" fill="none" stroke="#0c0c0e" stroke-width="15"/>
  <ellipse cx="188" cy="256" rx="9.5" ry="10.5" fill="url(#g-skin)" stroke="#5a4a42" stroke-width="1.5"/>
  <path d="M110 96 L114 112 L126 112 L130 96Z" fill="url(#g-skin)" stroke="#5a4a42" stroke-width="1.2"/>
  <ellipse cx="120" cy="72" rx="30" ry="34" fill="url(#g-skin)" stroke="#5a4a42" stroke-width="1.6"/>
  <path d="M90 80 C88 52 100 36 112 30 L110 66Z" fill="#1a1412"/>
  <path d="M150 82 C152 54 140 38 128 32 L130 66Z" fill="#1a1412"/>
  <path d="M98 68 C92 28 116 16 132 18 C152 20 156 44 148 64 C138 50 122 46 106 56Z" fill="#2a221e" stroke="#5a4a42" stroke-width="1.5"/>
  <ellipse cx="111" cy="73" rx="5.6" ry="3.6" fill="#fff" stroke="#5a4a42"/><circle cx="111" cy="73.2" r="2.2" fill="#3a2a22"/><circle cx="111.8" cy="72.2" r="0.6" fill="#fff"/>
  <ellipse cx="129" cy="73" rx="5.6" ry="3.6" fill="#fff" stroke="#5a4a42"/><circle cx="129" cy="73.2" r="2.2" fill="#3a2a22"/><circle cx="129.8" cy="72.2" r="0.6" fill="#fff"/>
  <path d="M119.5 70 Q121.5 78 118.5 81" fill="none" stroke="#d9a088" stroke-width="1.35"/>
  <path d="M113 87 Q120 93 127 87" fill="#e8a0a6" stroke="#c97a82" stroke-width="1.1"/>
</svg>
